<mxfile host="app.diagrams.net" modified="2024-02-29T22:51:23.875Z" agent="Mozilla/5.0 (X11; Linux x86_64; rv:122.0) Gecko/20100101 Firefox/122.0" version="23.1.8" etag="p1YAp9Z8eIbdXjHt47gA" type="github">
  <diagram name="PÃ¡gina-1" id="YX1K54ANonkZZs8eJlF3">
    <mxGraphModel>
      <root>
        <mxCell id="0" />
        <mxCell id="1" parent="0" />
      </root>
    </mxGraphModel>
  </diagram>
</mxfile>
